<svg xmlns="http://www.w3.org/2000/svg" version="1.1" xmlns:xlink="http://www.w3.org/1999/xlink" xmlns:svgjs="http://svgjs.dev/svgjs" viewBox="0 0 7.515859932504317 1.9562602455800766"><g transform="matrix(1,0,0,1,0.3049301227900383,0.5821301227900384)"><rect width="7.515859932504317" height="7.515859932504317" x="-0.3049301227900383" y="-3.3619299662521587" fill="transparent"></rect><g><path d=" M 0.269 0.7919999999999999 L 0.099 0.18699999999999994 L 0.019 0.18699999999999994 L 0.019 0.013999999999999901 L 0.454 0.013999999999999901 L 0.454 0.18699999999999994 L 0.38 0.18699999999999994 L 0.458 0.4639999999999999 L 0.585 0.013999999999999901 L 0.785 0.013999999999999901 L 0.908 0.4489999999999999 L 0.984 0.18699999999999994 L 0.916 0.18699999999999994 L 0.916 0.013999999999999901 L 1.238 0.013999999999999901 L 1.238 0.18699999999999994 L 1.156 0.18699999999999994 L 0.989 0.7919999999999999 L 0.724 0.7919999999999999 L 0.63 0.4469999999999999 L 0.531 0.7919999999999999 L 0.269 0.7919999999999999 M 1.31902392578125 0.7919999999999999 L 1.31902392578125 0.6199999999999999 L 1.41302392578125 0.6199999999999999 L 1.41302392578125 0.18699999999999994 L 1.31902392578125 0.18699999999999994 L 1.31902392578125 0.014999999999999902 L 1.97502392578125 0.014999999999999902 L 1.97502392578125 0.3239999999999999 L 1.85002392578125 0.3239999999999999 L 1.80302392578125 0.18699999999999994 L 1.66302392578125 0.18699999999999994 L 1.66302392578125 0.3139999999999999 L 1.78802392578125 0.3139999999999999 L 1.78802392578125 0.4419999999999999 L 1.66302392578125 0.4419999999999999 L 1.66302392578125 0.6199999999999999 L 1.80302392578125 0.6199999999999999 L 1.85002392578125 0.4609999999999999 L 1.97502392578125 0.4609999999999999 L 1.97502392578125 0.7919999999999999 L 1.31902392578125 0.7919999999999999 M 2.02103173828125 0.6199999999999999 L 2.11503173828125 0.6199999999999999 L 2.11503173828125 0.18699999999999994 L 2.03403173828125 0.18699999999999994 L 2.03403173828125 0.013999999999999901 L 2.43103173828125 0.013999999999999901 Q 2.52903173828125 0.013999999999999901 2.59603173828125 0.029999999999999916 Q 2.66303173828125 0.04599999999999993 2.70253173828125 0.09099999999999986 Q 2.7420317382812502 0.1359999999999999 2.7420317382812502 0.21899999999999986 Q 2.7420317382812502 0.2769999999999999 2.70853173828125 0.3199999999999999 Q 2.67503173828125 0.36299999999999993 2.62303173828125 0.3819999999999999 Q 2.69103173828125 0.4109999999999999 2.72353173828125 0.4574999999999999 Q 2.75603173828125 0.5039999999999999 2.75603173828125 0.585 Q 2.75603173828125 0.6839999999999999 2.67853173828125 0.7379999999999999 Q 2.6010317382812502 0.7919999999999999 2.45903173828125 0.7919999999999999 L 2.02103173828125 0.7919999999999999 L 2.02103173828125 0.6199999999999999 M 2.39203173828125 0.3279999999999999 Q 2.44803173828125 0.3279999999999999 2.47453173828125 0.3124999999999999 Q 2.50103173828125 0.29699999999999993 2.50103173828125 0.2539999999999999 Q 2.50103173828125 0.22399999999999987 2.48253173828125 0.2054999999999999 Q 2.46403173828125 0.18699999999999994 2.43403173828125 0.18699999999999994 L 2.36503173828125 0.18699999999999994 L 2.36503173828125 0.3279999999999999 L 2.39203173828125 0.3279999999999999 M 2.3830317382812503 0.6199999999999999 Q 2.44203173828125 0.6199999999999999 2.47403173828125 0.6034999999999999 Q 2.50603173828125 0.587 2.50603173828125 0.5349999999999999 Q 2.50603173828125 0.4549999999999999 2.40803173828125 0.4549999999999999 Q 2.38603173828125 0.4549999999999999 2.36503173828125 0.4559999999999999 L 2.36503173828125 0.6199999999999999 L 2.3830317382812503 0.6199999999999999" fill="#382d5e" fill-rule="nonzero"></path></g><g><path d=" M 4.4874547650492405 0.7924999999999999 Q 4.451954765049241 0.7789999999999999 4.41095476504924 0.7469999999999999 L 4.393954765049241 0.7919999999999999 L 4.23595476504924 0.7919999999999999 L 4.23595476504924 0.5539999999999999 L 4.39295476504924 0.5539999999999999 Q 4.40795476504924 0.595 4.43945476504924 0.6119999999999999 Q 4.470954765049241 0.6289999999999999 4.51695476504924 0.6289999999999999 Q 4.544954765049241 0.6289999999999999 4.56495476504924 0.6174999999999999 Q 4.584954765049241 0.6059999999999999 4.584954765049241 0.587 Q 4.584954765049241 0.563 4.56445476504924 0.5509999999999999 Q 4.54395476504924 0.5389999999999999 4.50695476504924 0.5289999999999999 Q 4.41295476504924 0.5029999999999999 4.352454765049241 0.4729999999999999 Q 4.2919547650492405 0.4429999999999999 4.2549547650492405 0.3869999999999999 Q 4.217954765049241 0.3309999999999999 4.217954765049241 0.23899999999999988 Q 4.217954765049241 0.16799999999999993 4.248454765049241 0.11399999999999988 Q 4.2789547650492405 0.05999999999999994 4.33595476504924 0.029999999999999916 Q 4.39295476504924 -1.1102230246251565e-16 4.46995476504924 -1.1102230246251565e-16 Q 4.563954765049241 -1.1102230246251565e-16 4.61895476504924 0.05999999999999994 L 4.643954765049241 0.013999999999999901 L 4.78395476504924 0.013999999999999901 L 4.78395476504924 0.2469999999999999 L 4.63395476504924 0.2469999999999999 Q 4.61295476504924 0.20299999999999996 4.58745476504924 0.18599999999999994 Q 4.56195476504924 0.16899999999999993 4.51795476504924 0.16899999999999993 Q 4.483954765049241 0.16899999999999993 4.46545476504924 0.18099999999999994 Q 4.446954765049241 0.19299999999999995 4.446954765049241 0.21399999999999997 Q 4.446954765049241 0.23699999999999988 4.47345476504924 0.24949999999999994 Q 4.499954765049241 0.2619999999999999 4.54895476504924 0.2729999999999999 Q 4.635954765049241 0.2929999999999999 4.69645476504924 0.3224999999999999 Q 4.75695476504924 0.3519999999999999 4.7934547650492405 0.4064999999999999 Q 4.829954765049241 0.4609999999999999 4.829954765049241 0.5469999999999999 Q 4.829954765049241 0.6199999999999999 4.799454765049241 0.6789999999999999 Q 4.768954765049241 0.7379999999999999 4.71245476504924 0.7719999999999999 Q 4.65595476504924 0.8059999999999999 4.582954765049241 0.8059999999999999 Q 4.52295476504924 0.8059999999999999 4.4874547650492405 0.7924999999999999 M 4.93996648379924 0.7919999999999999 L 4.93996648379924 0.6199999999999999 L 5.01796648379924 0.6199999999999999 L 5.01796648379924 0.18699999999999994 L 4.93996648379924 0.18699999999999994 L 4.93996648379924 0.014999999999999902 L 5.34596648379924 0.014999999999999902 L 5.34596648379924 0.18699999999999994 L 5.26796648379924 0.18699999999999994 L 5.26796648379924 0.6199999999999999 L 5.34596648379924 0.6199999999999999 L 5.34596648379924 0.7919999999999999 L 4.93996648379924 0.7919999999999999 M 5.56698064395549 0.7919999999999999 L 5.56698064395549 0.6159999999999999 L 5.64698064395549 0.6159999999999999 L 5.64698064395549 0.18699999999999994 L 5.57798064395549 0.18699999999999994 L 5.55698064395549 0.3209999999999999 L 5.41998064395549 0.3209999999999999 L 5.41998064395549 0.014999999999999902 L 6.15098064395549 0.014999999999999902 L 6.15098064395549 0.3209999999999999 L 6.01398064395549 0.3209999999999999 L 5.99298064395549 0.18699999999999994 L 5.92198064395549 0.18699999999999994 L 5.92198064395549 0.6159999999999999 L 6.0019806439554895 0.6159999999999999 L 6.0019806439554895 0.7919999999999999 L 5.56698064395549 0.7919999999999999 M 6.244991874424239 0.7919999999999999 L 6.244991874424239 0.6199999999999999 L 6.33899187442424 0.6199999999999999 L 6.33899187442424 0.18699999999999994 L 6.244991874424239 0.18699999999999994 L 6.244991874424239 0.014999999999999902 L 6.90099187442424 0.014999999999999902 L 6.90099187442424 0.3239999999999999 L 6.77599187442424 0.3239999999999999 L 6.728991874424239 0.18699999999999994 L 6.58899187442424 0.18699999999999994 L 6.58899187442424 0.3139999999999999 L 6.71399187442424 0.3139999999999999 L 6.71399187442424 0.4419999999999999 L 6.58899187442424 0.4419999999999999 L 6.58899187442424 0.6199999999999999 L 6.728991874424239 0.6199999999999999 L 6.77599187442424 0.4609999999999999 L 6.90099187442424 0.4609999999999999 L 6.90099187442424 0.7919999999999999 L 6.244991874424239 0.7919999999999999" fill="#382d5e" fill-rule="nonzero"></path></g><g></g><g clip-path="url(#SvgjsClipPath1002)"><g clip-path="url(#ac037f2b1-2ca2-44e5-8c4a-cd6df3c57effaa88e391-f27c-4237-b8ef-6d2e4925fe86)"><path d=" M 3.3579527301890906 0.8323115491958262 L 3.3579527301890906 -0.46539879803449846" fill="none" transform="matrix(1,0,0,1,0,0)" fill-rule="nonzero" stroke-dasharray="none" stroke-miterlimit="4" stroke-linejoin="miter" stroke-linecap="butt" stroke-width="0.009296406235770131" stroke="#e37f7c"></path></g><g clip-path="url(#ac037f2b1-2ca2-44e5-8c4a-cd6df3c57effaa88e391-f27c-4237-b8ef-6d2e4925fe86)"><path d=" M 3.35801947984222 0.24066689646241352 C 3.35801947984222 0.08232458294009903 3.0829927045003074 -0.076011662431931 2.945476282754209 0.0031594943292262423 C 3.0829927045003074 -0.076011662431931 3.0829927045003074 -0.3926902213262755 2.945476282754209 -0.4718613780874328 C 3.0829927045003074 -0.3926902213262755 3.35801947984222 -0.5510264666983057 3.35801947984222 -0.7093687802206201 C 3.35801947984222 -0.5510264666983057 3.633046255184132 -0.3926902213262756 3.77056267693023 -0.4718613780874328 C 3.633046255184132 -0.3926902213262756 3.633046255184132 -0.07601166243193105 3.77056267693023 0.0031594943292262423 C 3.633046255184132 -0.076011662431931 3.35801947984222 0.08232458294009903 3.35801947984222 0.24066689646241352 Z" fill="none" transform="matrix(1,0,0,1,0,0)" fill-rule="nonzero" stroke-dasharray="none" stroke-miterlimit="10" stroke-linejoin="miter" stroke-linecap="butt" stroke-width="0.009296406235770131" stroke="#e37f7c"></path></g><g clip-path="url(#ac037f2b1-2ca2-44e5-8c4a-cd6df3c57effaa88e391-f27c-4237-b8ef-6d2e4925fe86)"><path d=" M 2.7651915378033403 -0.575814860610264 L 3.9280797220138606 0.09395722703538095 L 4.077641422074582 0.1795242141963435" fill="none" transform="matrix(1,0,0,1,0,0)" fill-rule="nonzero" stroke-dasharray="none" stroke-miterlimit="10" stroke-linejoin="miter" stroke-linecap="butt" stroke-width="0.009296406235770131" stroke="#e37f7c"></path></g><g clip-path="url(#ac037f2b1-2ca2-44e5-8c4a-cd6df3c57effaa88e391-f27c-4237-b8ef-6d2e4925fe86)"><path d=" M 2.948747015757525 0.0012905040416173463 L 3.9508534900313834 -0.5758148606102642" fill="none" transform="matrix(1,0,0,1,0,0)" fill-rule="nonzero" stroke-dasharray="none" stroke-miterlimit="10" stroke-linejoin="miter" stroke-linecap="butt" stroke-width="0.009296406235770131" stroke="#e37f7c"></path></g><g clip-path="url(#ac037f2b1-2ca2-44e5-8c4a-cd6df3c57effaa88e391-f27c-4237-b8ef-6d2e4925fe86)"><path d=" M 3.3580255479925043 -0.16055920034510662 C 3.3373156853918706 -0.17395672381046862 3.3159250558006015 -0.18627137468774518 3.293939812838476 -0.1974535540745348 C 3.2952392037152114 -0.22203060443423284 3.2952392037152114 -0.24665914302340392 3.293939812838478 -0.2712361933831038 C 3.3048382107493417 -0.2767703464425177 3.315675927157361 -0.28263824776757623 3.3264711665133886 -0.28885810180913263 C 3.3371572968648957 -0.2950139875795119 3.3476829654685676 -0.3014443172262767 3.3580376842930737 -0.3081426834130999 C 3.3787293935449108 -0.29472754287469743 3.40011500688118 -0.282414307084663 3.4221052149962423 -0.2712543978339592 C 3.421461991066095 -0.2590756202130753 3.421134310950735 -0.24678761588707368 3.421134310950735 -0.2343479078039609 C 3.421134310950735 -0.22192033602141703 3.421461991066095 -0.2096201953948465 3.422093078695677 -0.19745355407453374 C 3.411102617169485 -0.19186801090978028 3.4002611432823326 -0.18599402832403866 3.389579929471617 -0.17983771379878782 C 3.3788940914187053 -0.1736901598729761 3.368372303641422 -0.1672617522252013 3.3580255479925003 -0.16055920034510426 Z" fill="none" transform="matrix(1,0,0,1,0,0)" fill-rule="nonzero" stroke-dasharray="none" stroke-miterlimit="10" stroke-linejoin="miter" stroke-linecap="butt" stroke-width="0.009296406235770131" stroke="#e37f7c"></path></g><g clip-path="url(#ac037f2b1-2ca2-44e5-8c4a-cd6df3c57effaa88e391-f27c-4237-b8ef-6d2e4925fe86)"><path d=" M 3.3580255479925043 -0.059797564871893194 C 3.335050915082118 -0.07791662045900727 3.310775626478279 -0.09432256995490967 3.285395857237979 -0.10888283252277067 C 3.2600534536277497 -0.12352816568206385 3.233671209775804 -0.13629540315500346 3.206461358337916 -0.14708183856335338 C 3.2107044161659206 -0.17597608831627032 3.2128117290311935 -0.20514381335523765 3.2127661664834535 -0.2343479078039607 C 3.2128117311627795 -0.2635560317420502 3.2107044198698897 -0.2927277914395009 3.206461358337919 -0.32162611334511154 C 3.233674771949986 -0.3323973638575405 3.260057674780697 -0.3451588356142158 3.2853958572379787 -0.3598069149348665 C 3.3107774307466253 -0.3743634524228724 3.33505111451852 -0.39077171626934837 3.3580194798422176 -0.4088982507360274 C 3.3809941127526058 -0.39077919514891446 3.405269401356445 -0.37437324565301205 3.430649170596745 -0.3598129830851511 C 3.4559877447990717 -0.34516786402058286 3.4823682575098727 -0.3324045391578881 3.5095776013465256 -0.32162611334513663 C 3.5053366361656195 -0.2927276340035059 3.5032313534911594 -0.2635558799507502 3.50327886135127 -0.23434790780396206 C 3.503220967547964 -0.20513935006091227 3.5053283444988153 -0.1759666814524987 3.509583669496799 -0.1470697022628506 C 3.4823702912621113 -0.1362983711723041 3.4559873942636927 -0.12353690223672209 3.430649170596745 -0.10888890067305534 C 3.405268075029474 -0.09433159672716557 3.3809944463878363 -0.07792337014704787 3.3580255479925034 -0.05979756487189286 Z" fill="none" transform="matrix(1,0,0,1,0,0)" fill-rule="nonzero" stroke-dasharray="none" stroke-miterlimit="10" stroke-linejoin="miter" stroke-linecap="butt" stroke-width="0.009296406235770131" stroke="#e37f7c"></path></g><g clip-path="url(#ac037f2b1-2ca2-44e5-8c4a-cd6df3c57effaa88e391-f27c-4237-b8ef-6d2e4925fe86)"><path d=" M 3.3580255479925043 0.05236612498579307 C 3.327357116454918 0.018572596051717516 3.2889639296052327 -0.012229334792126678 3.2443205479625687 -0.03792188309646782 C 3.1996832344701898 -0.06363870400194685 3.153747336816939 -0.08139411173423367 3.1090675462725685 -0.09099392548422605 C 3.1230728371290684 -0.13437513186772518 3.1306155479326336 -0.18294460674442498 3.1306155479326336 -0.2343418396536763 C 3.1306155479326336 -0.2857451407132121 3.123078905279353 -0.33431461558991193 3.109073614422853 -0.3777018901236955 C 3.153741268666655 -0.3872956357234034 3.1996832344701898 -0.4050571116059747 3.2443266161128532 -0.43076179621088484 C 3.288969997755517 -0.45647254896607925 3.3273631846052023 -0.487268411659639 3.3580255479925043 -0.5210558724434302 C 3.3886939795300903 -0.487268411659639 3.4270993026803445 -0.45647254896607925 3.4717305480224394 -0.4307678643611692 C 3.516361793364534 -0.40506924790654353 3.5623037591680693 -0.38730170387368784 3.606977481562155 -0.37770795827397985 C 3.59297825885594 -0.3343146155899119 3.5854234117518056 -0.28575727701378095 3.5854355480523745 -0.23434790780396075 C 3.5854234117518056 -0.1829385385941405 3.5929721907056553 -0.13437513186772515 3.606977481562155 -0.09098785733394157 C 3.5623037591680693 -0.08140017988451809 3.5163678615148184 -0.06363870400194682 3.471724479872155 -0.03792795124675227 C 3.427081098229491 -0.012223266641842201 3.3886939795300903 0.018572596051717516 3.3580255479925043 0.05236612498579307 Z" fill="none" transform="matrix(1,0,0,1,0,0)" fill-rule="nonzero" stroke-dasharray="none" stroke-miterlimit="10" stroke-linejoin="miter" stroke-linecap="butt" stroke-width="0.009296406235770131" stroke="#e37f7c"></path></g><g clip-path="url(#ac037f2b1-2ca2-44e5-8c4a-cd6df3c57effaa88e391-f27c-4237-b8ef-6d2e4925fe86)"><path d=" M 3.4514750623729613 0.8757473689318853 C 3.4514750623729613 0.9273630552513767 3.409635166161711 0.9692029514626268 3.35801947984222 0.9692029514626268 C 3.306409861673013 0.9692029514626268 3.2645638973114783 0.9273630552513767 3.2645638973114783 0.8757473689318853 C 3.2645638973114783 0.8241316826123939 3.306409861673013 0.7822917864011438 3.35801947984222 0.7822917864011438 C 3.409635166161711 0.7822917864011438 3.4514750623729613 0.8241316826123939 3.4514750623729613 0.8757473689318853" fill="#382d5e" transform="matrix(1,0,0,1,0,0)" fill-rule="nonzero"></path></g><g clip-path="url(#ac037f2b1-2ca2-44e5-8c4a-cd6df3c57effaa88e391-f27c-4237-b8ef-6d2e4925fe86)"><path d=" M 3.3243715865149706 0.8219289440591402 C 3.2731260573628305 0.8032875863853246 3.2466992628740714 0.7466474716303124 3.265352756848456 0.6954201469290255 M 3.298302812892994 0.853938436809589 C 3.2437683462866844 0.853938436809589 3.199555803314216 0.8097440982879742 3.199555803314216 0.7552339042828027 M 3.3243715865149706 0.9295657938046302 C 3.2731260573628305 0.9482132196287305 3.2466992628740714 1.004847266233458 3.265352756848456 1.0560745909347449 M 3.298302812892994 0.8975563010541814 C 3.2437683462866844 0.8975563010541814 3.199555803314216 0.9417506395757964 3.199555803314216 0.996260833580968 M 3.391661305019184 0.9295657938046302 C 3.4429068341713243 0.9482132196287305 3.4693336286600833 1.004847266233458 3.450680134685699 1.0560745909347449 M 3.417730078641161 0.8975563010541814 C 3.4722645452474703 0.8975563010541814 3.5164770882199385 0.9417506395757964 3.5164770882199385 0.996260833580968 M 3.391661305019184 0.8219289440591402 C 3.4429068341713243 0.8032875863853246 3.4693336286600833 0.7466474716303124 3.450680134685699 0.6954201469290255 M 3.417730078641161 0.853938436809589 C 3.4722645452474703 0.853938436809589 3.5164770882199385 0.8097440982879742 3.5164770882199385 0.7552339042828027" fill="none" transform="matrix(1,0,0,1,0,0)" fill-rule="nonzero" stroke-dasharray="none" stroke-miterlimit="10" stroke-linejoin="round" stroke-linecap="round" stroke-width="0.02625081813051017" stroke="#382d5e"></path></g><g clip-path="url(#ac037f2b1-2ca2-44e5-8c4a-cd6df3c57effaa88e391-f27c-4237-b8ef-6d2e4925fe86)"><path d=" M 3.4045197154719236 0.9283643000483099 C 3.4045197154719236 0.9372085044165486 3.3973500712395115 0.9443781486489611 3.388505866871273 0.9443781486489611 C 3.379661662503034 0.9443781486489611 3.3724920182706217 0.9372085044165486 3.3724920182706217 0.9283643000483099 C 3.3724920182706217 0.9195200956800711 3.379661662503034 0.9123504514476588 3.388505866871273 0.9123504514476588 C 3.3973500712395115 0.9123504514476588 3.4045197154719236 0.9195200956800711 3.4045197154719236 0.9283643000483099" fill="#c84449" transform="matrix(1,0,0,1,0,0)" fill-rule="nonzero"></path></g><g clip-path="url(#ac037f2b1-2ca2-44e5-8c4a-cd6df3c57effaa88e391-f27c-4237-b8ef-6d2e4925fe86)"><path d=" M 3.343546941413818 0.9283643000483099 C 3.343546941413818 0.9372085044165486 3.3363772971814054 0.9443781486489611 3.327533092813167 0.9443781486489611 C 3.318688888444928 0.9443781486489611 3.3115192442125156 0.9372085044165486 3.3115192442125156 0.9283643000483099 C 3.3115192442125156 0.9195200956800711 3.318688888444928 0.9123504514476588 3.327533092813167 0.9123504514476588 C 3.3363772971814054 0.9123504514476588 3.343546941413818 0.9195200956800711 3.343546941413818 0.9283643000483099" fill="#c84449" transform="matrix(1,0,0,1,0,0)" fill-rule="nonzero"></path></g></g></g><defs><clipPath id="SvgjsClipPath1002"><path d=" M 2.9220532226562503 -0.27719999999999995 h 1.1579015423929906 v 1.3463999999999998 h -1.1579015423929906 Z"></path></clipPath><clipPath id="ac037f2b1-2ca2-44e5-8c4a-cd6df3c57effaa88e391-f27c-4237-b8ef-6d2e4925fe86"><path d=" M 2.9220532226562503 1.0692 L 4.0799533873329565 1.0692 L 4.0799533873329565 -0.27719511696242877 L 2.9220532226562503 -0.27719511696242877 Z"></path></clipPath></defs></svg>